<svg width="48" height="48" viewBox="0 0 48 48" fill="none" xmlns="http://www.w3.org/2000/svg">
<path d="M23.9999 4C18.7599 4 14.4999 8.26 14.4999 13.5C14.4999 18.64 18.5199 22.8 23.7599 22.98C23.9199 22.96 24.0799 22.96 24.1999 22.98H24.3399C26.7986 22.898 29.1291 21.863 30.8385 20.0938C32.5479 18.3247 33.5023 15.9601 33.4999 13.5C33.4999 8.26 29.2399 4 23.9999 4ZM34.1599 28.298C28.5799 24.578 19.4799 24.578 13.8599 28.298C11.3199 29.998 9.91992 32.298 9.91992 34.758C9.91992 37.218 11.3199 39.498 13.8399 41.178C16.6399 43.058 20.3199 43.998 23.9999 43.998C27.6799 43.998 31.3599 43.058 34.1599 41.178C36.6799 39.478 38.0799 37.198 38.0799 34.718C38.0599 32.258 36.6799 29.978 34.1599 28.298Z" fill="#979797"/>
</svg>
