<svg width="28" height="28" viewBox="0 0 28 28" fill="none" xmlns="http://www.w3.org/2000/svg">
<g clip-path="url(#clip0_1_281)">
<path d="M25.7374 17.3119L10.6981 2.34836C8.34278 0.00520802 4.47969 0.00213724 2.0796 2.34836C-0.296389 4.71237 -0.296389 8.55906 2.0796 10.9231L17.1189 25.8866C18.3069 27.0686 19.8673 27.6596 21.428 27.6596C22.9884 27.6596 24.5491 27.0686 25.7374 25.8869C28.1131 23.5229 28.1131 19.6759 25.7374 17.3119ZM24.2775 24.4341C22.7061 25.9965 20.1498 25.9965 18.5788 24.4341L3.53984 9.47056C1.96876 7.90746 1.96876 5.36366 3.53329 3.80706C4.32862 3.02945 5.36728 2.64081 6.40179 2.64081C7.43321 2.64081 8.46048 3.02739 9.23826 3.80055L24.2776 18.7641C25.8482 20.3275 25.8482 22.8709 24.2775 24.4341Z" fill="white"/>
<path d="M25.7371 2.38151C24.5935 1.24369 23.0627 0.616699 21.428 0.616699C19.7932 0.616699 18.2625 1.24332 17.1189 2.38151L2.0796 17.345C-0.296389 19.709 -0.296389 23.5557 2.0796 25.9197C3.26762 27.1018 4.82794 27.6931 6.3887 27.6931C7.94945 27.6931 9.50978 27.1021 10.6974 25.9197L25.7711 10.922C26.9192 9.78007 27.548 8.26011 27.5407 6.64221C27.5339 5.02495 26.891 3.50944 25.7371 2.38151ZM24.3116 9.46952L9.23788 24.4672C7.66648 26.0296 5.11017 26.0303 3.53946 24.4672C1.96876 22.9038 1.96876 20.3606 3.53946 18.7975L18.5788 3.83402C19.3634 3.05334 20.3941 2.66263 21.4256 2.66263C22.4594 2.66263 23.4943 3.05504 24.2837 3.84054C25.0481 4.58802 25.4714 5.58618 25.4762 6.65105C25.4807 7.71667 25.067 8.71753 24.3116 9.46952Z" fill="white"/>
<path d="M11.9294 13.5176C11.5165 13.1068 10.7937 13.1068 10.3808 13.5176C9.9678 13.9285 9.9678 14.6476 10.3808 15.0585C10.7937 15.4694 11.5165 15.4694 11.9294 15.0585C12.3769 14.6134 12.3769 13.9285 11.9294 13.5176Z" fill="white"/>
<path d="M12.0484 13.3935C11.5711 12.921 10.7355 12.9213 10.2589 13.3959C9.78154 13.8712 9.78154 14.7043 10.2589 15.1792C10.4977 15.4165 10.8264 15.5353 11.1551 15.5353C11.4837 15.5353 11.8124 15.4168 12.0509 15.1792C12.3066 14.9248 12.4436 14.5947 12.4367 14.2502C12.4301 13.9226 12.2921 13.6185 12.0484 13.3935ZM11.8079 14.9372C11.4603 15.2827 10.8501 15.283 10.5025 14.9372C10.155 14.5913 10.155 13.9842 10.5025 13.6384C10.6763 13.4655 10.9155 13.3792 11.1551 13.3792C11.3946 13.3792 11.6341 13.4655 11.8079 13.6384L11.8127 13.6432C11.9886 13.8045 12.088 14.0226 12.0929 14.2575C12.098 14.5077 11.9968 14.7492 11.8079 14.9372Z" fill="white"/>
<path d="M14.5449 16.1197C14.132 15.7088 13.4092 15.7088 12.9962 16.1197C12.5833 16.5306 12.5833 17.2497 12.9962 17.6606C13.4092 18.0714 14.132 18.0714 14.5449 17.6606C14.9923 17.2496 14.9923 16.5306 14.5449 16.1197Z" fill="white"/>
<path d="M14.6645 15.9962C14.4357 15.7699 14.1101 15.6401 13.7708 15.6401C13.4301 15.6401 13.1035 15.7706 12.8746 15.9987C12.6458 16.2267 12.5146 16.5513 12.5146 16.8903C12.5146 17.2293 12.6454 17.5542 12.8746 17.7819C13.1038 18.0097 13.4304 18.1405 13.7708 18.1405C14.1112 18.1405 14.4381 18.0097 14.6618 17.7861C14.9103 17.5581 15.0527 17.2314 15.0527 16.89C15.0527 16.5499 14.9113 16.2242 14.6645 15.9962ZM14.4236 17.5395C14.076 17.8853 13.4662 17.8853 13.1183 17.5395C12.9534 17.3755 12.8591 17.1389 12.8591 16.8903C12.8591 16.6416 12.9534 16.405 13.1183 16.241C13.292 16.0681 13.5312 15.9815 13.7708 15.9815C14.0103 15.9815 14.2498 16.0681 14.4236 16.2407L14.4288 16.2455C14.6063 16.4092 14.7085 16.6444 14.7085 16.8903C14.7085 17.1361 14.6064 17.3713 14.4236 17.5395Z" fill="white"/>
<path d="M14.8547 10.607C14.4418 10.1961 13.719 10.1961 13.3061 10.607C12.8931 11.0179 12.8931 11.737 13.3061 12.1479C13.719 12.5587 14.4418 12.5587 14.8547 12.1479C15.2677 11.737 15.2677 11.0179 14.8547 10.607Z" fill="white"/>
<path d="M14.9765 10.4856C14.4992 10.0107 13.6615 10.0107 13.1842 10.4856C12.7068 10.9605 12.7068 11.7936 13.1842 12.2686C13.4227 12.5062 13.7513 12.625 14.0803 12.625C14.4093 12.625 14.738 12.5062 14.9765 12.2686C15.4535 11.7936 15.4535 10.9605 14.9765 10.4856ZM14.7329 12.0268C14.4028 12.3549 13.7572 12.3549 13.4275 12.0268C13.0799 11.681 13.0799 11.0739 13.4275 10.7281C13.6013 10.5552 13.8408 10.4689 14.0803 10.4689C14.3199 10.4689 14.5594 10.5552 14.7329 10.7281C15.0804 11.0742 15.0804 11.681 14.7329 12.0268Z" fill="white"/>
<path d="M17.4702 13.209C17.0572 12.7982 16.3345 12.7982 15.9215 13.209C15.5086 13.6199 15.5086 14.339 15.9215 14.7499C16.3345 15.1608 17.0572 15.1608 17.4702 14.7499C17.9176 14.339 17.9176 13.6542 17.4702 13.209Z" fill="white"/>
<path d="M17.5921 13.088C17.3629 12.8603 17.0367 12.7295 16.696 12.7295C16.3553 12.7295 16.0286 12.8599 15.7998 13.088C15.5709 13.3161 15.4395 13.6407 15.4395 13.9797C15.4395 14.3186 15.5706 14.6436 15.7998 14.8713C16.029 15.099 16.3556 15.2298 16.696 15.2298C17.0363 15.2298 17.3633 15.099 17.587 14.8754C17.8324 14.6501 17.971 14.345 17.9779 14.0163C17.9848 13.6722 17.8478 13.3425 17.5921 13.088ZM17.3488 14.6289C17.0012 14.9747 16.391 14.9747 16.0434 14.6289C15.8786 14.4649 15.7839 14.2283 15.7839 13.9797C15.7839 13.731 15.8786 13.4944 16.0434 13.3304C16.2169 13.1575 16.4568 13.0709 16.696 13.0709C16.9351 13.0709 17.175 13.1575 17.3488 13.3301C17.5377 13.5177 17.6389 13.7591 17.6337 14.0094C17.6289 14.2444 17.5295 14.4628 17.3488 14.6289Z" fill="white"/>
</g>
<defs>
<clipPath id="clip0_1_281">
<rect width="27.2432" height="27.1059" fill="white" transform="translate(0.297607 0.588379)"/>
</clipPath>
</defs>
</svg>
