<svg width="28" height="28" viewBox="0 0 28 28" fill="none" xmlns="http://www.w3.org/2000/svg">
<g clip-path="url(#clip0_1_331)">
<path d="M26.2363 17.5835C26.2126 17.5519 26.1869 17.5224 26.1595 17.4941C25.3675 16.5088 23.9358 16.3109 22.9375 17.0565C21.4987 18.1116 19.0373 19.887 18.2157 20.4795L14.6268 20.1995L16.8226 19.7213C17.9988 19.551 18.8421 18.5184 18.7911 17.2996C18.7908 17.2867 18.7899 17.2738 18.7887 17.2612C18.6867 16.0433 17.6921 15.125 16.4754 15.125H9.83453C9.29493 15.125 8.79146 15.2624 8.33801 15.5331C8.31982 15.5442 8.30188 15.5556 8.28427 15.5679L1.21093 20.485C0.791475 20.7767 0.688941 21.3517 0.982018 21.7687C1.27483 22.1864 1.85306 22.2887 2.27219 21.9964L9.3159 17.0998C9.47281 17.0116 9.64271 16.9683 9.83479 16.9683H16.4757C16.7222 16.9683 16.9106 17.1428 16.9403 17.3948C16.9425 17.6167 16.8223 17.8632 16.5462 17.8976C16.5184 17.901 16.4906 17.9056 16.463 17.9117L12.5094 18.7722C12.2008 18.8395 11.9478 19.0583 11.8382 19.353C11.7285 19.6481 11.7773 19.9781 11.9679 20.2289L13.0181 21.6118C13.1778 21.8223 13.4206 21.9548 13.685 21.9754L18.4108 22.3442C18.6295 22.3598 18.8485 22.2999 19.0264 22.1717C19.0588 22.1484 22.2931 19.8192 24.0429 18.5361C24.2428 18.3871 24.5606 18.4436 24.7222 18.6587C24.7401 18.6824 24.7593 18.7054 24.7793 18.727C24.9038 18.9295 24.8562 19.1892 24.6588 19.3364L18.3908 24.037C18.2064 24.1744 18.0143 24.2267 17.7947 24.1978L8.65179 23.0607C8.40224 23.0297 8.15141 23.1007 7.9556 23.2574L4.46527 26.0543C4.06652 26.3739 4.00378 26.9545 4.32474 27.3509C4.50762 27.5771 4.77601 27.6945 5.0469 27.6945C5.25107 27.6945 5.45645 27.6278 5.62731 27.491L8.81158 24.9393L17.5569 26.0269C18.2544 26.1194 18.9265 25.9415 19.5038 25.5112L25.7728 20.8107C26.7948 20.048 27.0027 18.6005 26.2363 17.5835Z" fill="white"/>
<path d="M17.9884 3.78467C17.4766 3.78467 17.0618 4.1974 17.0618 4.70664V10.2385C17.0618 10.7477 17.4766 11.1604 17.9884 11.1604C18.5002 11.1604 18.9151 10.7477 18.9151 10.2385V4.70664C18.9151 4.1974 18.5002 3.78467 17.9884 3.78467Z" fill="white"/>
<path d="M20.7682 6.55029H15.2084C14.6966 6.55029 14.2817 6.96302 14.2817 7.47226C14.2817 7.9815 14.6966 8.39423 15.2084 8.39423H20.7682C21.2801 8.39423 21.6949 7.9815 21.6949 7.47226C21.6949 6.96302 21.2801 6.55029 20.7682 6.55029Z" fill="white"/>
<path d="M17.9884 0.588379C14.1732 0.588379 11.0698 3.67639 11.0698 7.47244C11.0698 11.2685 14.1732 14.3565 17.9884 14.3565C21.8034 14.3565 24.9074 11.2685 24.9074 7.47244C24.9074 3.67634 21.8037 0.588379 17.9884 0.588379ZM17.9884 12.5126C15.1952 12.5126 12.9231 10.2516 12.9231 7.47244C12.9231 4.69329 15.1953 2.43232 17.9884 2.43232C20.7816 2.43232 23.0541 4.69329 23.0541 7.47244C23.0541 10.2516 20.7817 12.5126 17.9884 12.5126Z" fill="white"/>
</g>
<defs>
<clipPath id="clip0_1_331">
<rect width="27.2432" height="27.1059" fill="white" transform="translate(0.135254 0.588379)"/>
</clipPath>
</defs>
</svg>
