<svg width="32" height="32" viewBox="0 0 32 32" fill="none" xmlns="http://www.w3.org/2000/svg">
<mask id="mask0_1_3430" style="mask-type:alpha" maskUnits="userSpaceOnUse" x="2" y="2" width="28" height="28">
<path fill-rule="evenodd" clip-rule="evenodd" d="M5.33341 2.6665H26.6667C28.1334 2.6665 29.3334 3.8665 29.3334 5.33317V21.3332C29.3334 22.7998 28.1334 23.9998 26.6667 23.9998H8.00008L2.66675 29.3332L2.68008 5.33317C2.68008 3.8665 3.86675 2.6665 5.33341 2.6665ZM22.6667 11.9998H9.33342C8.60008 11.9998 8.00008 12.5998 8.00008 13.3332C8.00008 14.0665 8.60008 14.6665 9.33342 14.6665H22.6667C23.4001 14.6665 24.0001 14.0665 24.0001 13.3332C24.0001 12.5998 23.4001 11.9998 22.6667 11.9998ZM17.3334 18.6665H9.33342C8.60008 18.6665 8.00008 18.0665 8.00008 17.3332C8.00008 16.5998 8.60008 15.9998 9.33342 15.9998H17.3334C18.0667 15.9998 18.6667 16.5998 18.6667 17.3332C18.6667 18.0665 18.0667 18.6665 17.3334 18.6665ZM9.33342 10.6665H22.6667C23.4001 10.6665 24.0001 10.0665 24.0001 9.33317C24.0001 8.59984 23.4001 7.99984 22.6667 7.99984H9.33342C8.60008 7.99984 8.00008 8.59984 8.00008 9.33317C8.00008 10.0665 8.60008 10.6665 9.33342 10.6665Z" fill="black"/>
</mask>
<g mask="url(#mask0_1_3430)">
<rect width="32" height="32" fill="url(#paint0_linear_1_3430)"/>
</g>
<defs>
<linearGradient id="paint0_linear_1_3430" x1="32" y1="32.0777" x2="0" y2="0.0777359" gradientUnits="userSpaceOnUse">
<stop stop-color="#2972FE"/>
<stop offset="1" stop-color="#6499FF"/>
</linearGradient>
</defs>
</svg>
