<svg width="28" height="28" viewBox="0 0 28 28" fill="none" xmlns="http://www.w3.org/2000/svg">
<g clip-path="url(#clip0_1_353)">
<path d="M21.9144 14.7335V24.4427H6.51853V14.5342H4.80151V25.2968C4.80151 25.7686 5.18585 26.151 5.66 26.151H22.7729C23.2471 26.151 23.6314 25.7686 23.6314 25.2968V14.7335H21.9144Z" fill="white"/>
<path d="M27.8353 13.1279C27.8164 12.8927 27.7005 12.6757 27.5151 12.5285L14.7519 2.39222C14.4383 2.14335 13.9938 2.14335 13.6808 2.39222L0.917668 12.5285C0.732233 12.6757 0.616343 12.8927 0.597453 13.1279C0.578564 13.363 0.658431 13.5957 0.817794 13.7702L3.36472 16.5605C3.53355 16.7456 3.7665 16.8404 4.00057 16.8404C4.18915 16.8404 4.37916 16.7786 4.53687 16.6531L14.2165 8.93756L23.8956 16.6531C24.2502 16.9344 24.7633 16.8951 25.068 16.5605L27.6149 13.7702C27.7746 13.5957 27.8542 13.363 27.8353 13.1279ZM24.3395 14.8174L14.7531 7.17653C14.5965 7.05153 14.4065 6.9889 14.2165 6.9889C14.0265 6.9889 13.8365 7.05153 13.6797 7.17653L4.093 14.8174L2.70396 13.2955L14.2165 4.15242L25.7288 13.2955L24.3395 14.8174Z" fill="white"/>
<path d="M22.1719 1.0957H18.7948C18.3206 1.0957 17.9363 1.4781 17.9363 1.94986V6.79022H19.6533V2.80401H21.3134V9.35269H23.0304V1.94986C23.0304 1.47804 22.6461 1.0957 22.1719 1.0957Z" fill="white"/>
<path d="M14.2164 14.7334C13.7422 14.7334 13.3579 15.1158 13.3579 15.5876V21.339C13.3579 21.8109 13.7422 22.1932 14.2164 22.1932C14.6905 22.1932 15.0746 21.8108 15.0749 21.339V15.5876C15.0749 15.1158 14.6905 14.7334 14.2164 14.7334Z" fill="white"/>
<path d="M17.1068 17.6094H11.3263C10.8521 17.6094 10.4678 17.9918 10.4678 18.4635C10.4678 18.9353 10.8521 19.3177 11.3263 19.3177H17.1069C17.5811 19.3177 17.9654 18.9353 17.9654 18.4635C17.9654 17.9918 17.581 17.6094 17.1068 17.6094Z" fill="white"/>
</g>
<defs>
<clipPath id="clip0_1_353">
<rect width="27.2432" height="27.1059" fill="white" transform="translate(0.594727 0.0703125)"/>
</clipPath>
</defs>
</svg>
