<svg width="16" height="23" viewBox="0 0 16 23" fill="none" xmlns="http://www.w3.org/2000/svg">
<path fill-rule="evenodd" clip-rule="evenodd" d="M8.03629 17.0271C7.69419 16.839 7.28059 16.8423 6.94729 17.0414L2.82449 19.4614L4.43929 13.1804C5.40179 13.7304 6.51389 14.0494 7.69969 14.0494C8.88549 14.0494 9.99759 13.7304 10.9612 13.1804L12.5991 19.5516L8.03629 17.0271ZM7.69969 3.04937C10.1263 3.04937 12.0997 5.02277 12.0997 7.44937C12.0997 9.87597 10.1263 11.8494 7.69969 11.8494C5.27309 11.8494 3.29969 9.87597 3.29969 7.44937C3.29969 5.02277 5.27309 3.04937 7.69969 3.04937V3.04937ZM15.3656 21.4755L12.8257 11.5986C13.7453 10.4634 14.2997 9.02127 14.2997 7.44937C14.2997 3.80947 11.3396 0.849365 7.69969 0.849365C4.06089 0.849365 1.09969 3.80947 1.09969 7.44937C1.09969 9.02127 1.65409 10.4634 2.57369 11.5986L0.034887 21.4755C-0.076213 21.9067 0.083287 22.361 0.438587 22.6283C0.792787 22.8956 1.27459 22.9198 1.65629 22.6976L7.51929 19.2557L13.7673 22.7119C13.9334 22.8043 14.1171 22.8494 14.2997 22.8494C14.5384 22.8494 14.776 22.7724 14.974 22.6195C15.3205 22.3511 15.4756 21.9012 15.3656 21.4755V21.4755Z" fill="#E8899E"/>
</svg>
