<svg width="49" height="48" viewBox="0 0 49 48" fill="none" xmlns="http://www.w3.org/2000/svg">
<g clip-path="url(#clip0_1_766)">
<path d="M44.0014 6.68242C41.5683 4.23507 38.2814 2.88207 34.7462 2.87214C31.1075 2.86004 27.461 4.23179 24.5394 6.67032C21.2165 3.75892 18.2107 2.33936 15.3803 2.33936C11.4274 2.33936 7.75988 3.88839 5.07834 6.67642C3.06286 8.68173 1.6819 11.3146 1.08329 14.2909C0.904077 15.1854 1.48658 16.0551 2.38567 16.234C3.28363 16.4113 4.15879 15.8328 4.33867 14.9382C4.80782 12.6038 5.87501 10.5544 7.45073 8.98614C9.52538 6.82942 12.3419 5.64207 15.3804 5.64207C17.5818 5.64207 20.2485 7.11789 23.2781 9.99948C23.6178 10.3391 24.0642 10.5268 24.535 10.5274C24.5356 10.5274 24.5367 10.5274 24.5372 10.5274C25.0069 10.5274 25.4533 10.3408 25.7936 10.0023C28.2395 7.56873 31.487 6.17495 34.707 6.17495C34.7175 6.17495 34.7274 6.17495 34.7374 6.17495C37.4207 6.18207 39.8085 7.16139 41.6231 8.98614C43.752 11.1985 44.9244 14.0961 44.9244 17.1467C44.9244 20.1996 43.7254 23.1693 41.6685 25.2621L24.5641 41.7131L11.0013 28.6749C10.3424 28.0413 9.29179 28.0605 8.65445 28.7145C8.01768 29.3707 8.03596 30.416 8.69488 31.0495L23.4112 45.1963C23.7326 45.5057 24.1487 45.6604 24.5641 45.6604C24.9796 45.6604 25.3957 45.5057 25.7176 45.1969L44.008 27.6042C46.6996 24.8668 48.2432 21.0554 48.2432 17.1466C48.2432 13.2411 46.7433 9.53158 44.0014 6.68242Z" fill="white"/>
<path d="M45.2557 20.9449H31.8671C31.4101 20.9449 30.9741 21.1314 30.661 21.4617L25.6281 26.7566L19.8311 13.6733C19.5822 13.1113 19.04 12.7331 18.4243 12.6919C17.8118 12.6528 17.2205 12.9528 16.8978 13.4763L12.2937 20.9449H1.65977C0.742964 20.9449 0 21.6841 0 22.5963C0 23.5085 0.742964 24.2477 1.65977 24.2477H13.2221C13.7991 24.2477 14.3353 23.9494 14.6368 23.4594L18.0714 17.8888L23.5989 30.3633C23.823 30.8697 24.2871 31.2303 24.8349 31.3244C24.9289 31.3403 25.0235 31.3486 25.1175 31.3486C25.5701 31.3486 26.0077 31.1647 26.3236 30.8322L32.5819 24.2476H45.2558C46.1725 24.2476 46.9155 23.5083 46.9155 22.5962C46.9154 21.6841 46.1724 20.9449 45.2557 20.9449Z" fill="white"/>
</g>
<defs>
<clipPath id="clip0_1_766">
<rect width="48.2432" height="48" fill="white"/>
</clipPath>
</defs>
</svg>
