<svg width="21" height="21" viewBox="0 0 21 21" fill="none" xmlns="http://www.w3.org/2000/svg">
<mask id="mask0_1_1204" style="mask-type:alpha" maskUnits="userSpaceOnUse" x="1" y="1" width="19" height="19">
<path fill-rule="evenodd" clip-rule="evenodd" d="M13.0042 2.60409V5.77909C14.4959 6.64575 15.5042 8.25409 15.5042 10.1124C15.5042 13.0708 12.9125 15.4374 9.87919 15.0708C7.69586 14.8041 5.89586 13.0624 5.56252 10.8874C5.23752 8.71242 6.30419 6.76242 8.00419 5.77909V2.60409C8.00419 2.14575 8.37919 1.77075 8.83752 1.77075H12.1709C12.6292 1.77075 13.0042 2.14575 13.0042 2.60409ZM3.01252 9.27075H2.16252C1.70419 9.27075 1.33752 9.63742 1.33752 10.0958V10.1041C1.33752 10.5624 1.70419 10.9291 2.16252 10.9291H3.00419C3.46252 10.9291 3.82919 10.5624 3.82919 10.1041V10.0958C3.83752 9.63742 3.47086 9.27075 3.01252 9.27075ZM5.22086 16.5541C4.89586 16.8791 4.37086 16.8791 4.04586 16.5541C3.72086 16.2291 3.72086 15.7124 4.03752 15.3791L4.36252 15.0541C4.51822 14.898 4.72959 14.8103 4.95002 14.8103C5.17046 14.8103 5.38183 14.898 5.53752 15.0541L5.54586 15.0624C5.86252 15.3791 5.87086 15.9041 5.54586 16.2291L5.22086 16.5541ZM10.5042 19.2291H10.4959C10.0375 19.2291 9.67086 18.8624 9.67086 18.4041V17.6041C9.67086 17.1458 10.0375 16.7791 10.4959 16.7791H10.5042C10.9625 16.7791 11.3292 17.1458 11.3292 17.6041V18.4041C11.3292 18.8624 10.9625 19.2291 10.5042 19.2291ZM17.1709 10.0958V10.1041C17.1709 10.5624 17.5375 10.9291 17.9959 10.9291H18.8375C19.2959 10.9291 19.6625 10.5624 19.6625 10.1041V10.0958C19.6625 9.63742 19.2959 9.27075 18.8375 9.27075H17.9959C17.5375 9.27075 17.1709 9.63742 17.1709 10.0958ZM15.7792 16.5624L15.4542 16.2374C15.1292 15.9124 15.1292 15.3958 15.4625 15.0624C15.7792 14.7458 16.3042 14.7374 16.6292 15.0624L16.9542 15.3874C17.2792 15.7124 17.2792 16.2374 16.9542 16.5624C16.6292 16.8874 16.1042 16.8874 15.7792 16.5624Z" fill="black"/>
</mask>
<g mask="url(#mask0_1_1204)">
<rect x="0.5" y="0.5" width="20" height="20" fill="#2972FE"/>
</g>
</svg>
