<svg width="21" height="18" viewBox="0 0 21 18" fill="none" xmlns="http://www.w3.org/2000/svg">
<path d="M14.9661 0C13.1455 0 11.5159 0.889887 10.5 2.25506C9.98109 1.5561 9.30727 0.988373 8.53201 0.596927C7.75676 0.205481 6.90141 0.00109775 6.03387 0C2.94581 0 0.441162 2.52809 0.441162 5.65281C0.441162 6.85618 0.63228 7.96854 0.964221 9C2.55352 14.0562 7.45216 17.0798 9.87634 17.909C10.2183 18.0303 10.7816 18.0303 11.1236 17.909C13.5478 17.0798 18.4465 14.0562 20.0358 9C20.3677 7.96854 20.5588 6.85618 20.5588 5.65281C20.5588 2.52809 18.0542 0 14.9661 0Z" fill="#2972FE"/>
</svg>
