<svg width="24" height="24" viewBox="0 0 24 24" fill="none" xmlns="http://www.w3.org/2000/svg">
<path d="M15 22.75H9C3.57 22.75 1.25 20.43 1.25 15V9C1.25 3.57 3.57 1.25 9 1.25H15C20.43 1.25 22.75 3.57 22.75 9V15C22.75 20.43 20.43 22.75 15 22.75ZM9 2.75C4.39 2.75 2.75 4.39 2.75 9V15C2.75 19.61 4.39 21.25 9 21.25H15C19.61 21.25 21.25 19.61 21.25 15V9C21.25 4.39 19.61 2.75 15 2.75H9Z" fill="#FF1843"/>
<path d="M13.9199 16.13H8.9999C8.5899 16.13 8.2499 15.79 8.2499 15.38C8.2499 14.97 8.5899 14.63 8.9999 14.63H13.9199C15.1999 14.63 16.2499 13.59 16.2499 12.3C16.2499 11.01 15.2099 9.96997 13.9199 9.96997H7.1499C6.7399 9.96997 6.3999 9.62997 6.3999 9.21997C6.3999 8.80997 6.7399 8.46997 7.1499 8.46997H13.9199C16.0299 8.46997 17.7499 10.19 17.7499 12.3C17.7499 14.41 16.0299 16.13 13.9199 16.13Z" fill="#FF1843"/>
<path d="M8.56998 11.52C8.37998 11.52 8.18998 11.45 8.03998 11.3L6.46998 9.73001C6.33074 9.58874 6.25269 9.39836 6.25269 9.20001C6.25269 9.00166 6.33074 8.81127 6.46998 8.67001L8.03998 7.10001C8.32998 6.81001 8.80998 6.81001 9.09998 7.10001C9.38998 7.39001 9.38998 7.87001 9.09998 8.16001L8.05998 9.20001L9.09998 10.24C9.20474 10.3449 9.27606 10.4785 9.30495 10.6239C9.33383 10.7693 9.31898 10.92 9.26227 11.0569C9.20556 11.1939 9.10953 11.311 8.98631 11.3934C8.8631 11.4758 8.71822 11.5199 8.56998 11.52Z" fill="#FF1843"/>
</svg>
