<svg width="29" height="28" viewBox="0 0 29 28" fill="none" xmlns="http://www.w3.org/2000/svg">
<g clip-path="url(#clip0_1_375)">
<path d="M20.9225 0.588379H8.29838C7.78188 0.588379 7.36328 1.00487 7.36328 1.51877V6.07775C7.36328 6.59165 7.78188 7.00814 8.29838 7.00814H20.9225C21.439 7.00814 21.8576 6.59165 21.8576 6.07775V1.51877C21.8576 1.00487 21.439 0.588379 20.9225 0.588379ZM19.9874 5.14736H9.23349V2.44921H19.9874V5.14736H19.9874Z" fill="white"/>
<path d="M19.5822 6.10889H17.7119V10.3888H19.5822V6.10889Z" fill="white"/>
<path d="M11.4777 6.10889H9.60742V10.3888H11.4777V6.10889Z" fill="white"/>
<path d="M21.39 9.45801H7.79952C6.94014 9.45801 6.24097 10.1537 6.24097 11.0087V26.1433C6.24097 26.9984 6.94014 27.6941 7.79952 27.6941H21.39C22.2494 27.6941 22.9485 26.9984 22.9485 26.1433V11.0087C22.9485 10.1537 22.2494 9.45801 21.39 9.45801ZM21.0783 25.8332H8.11123V11.3188H21.0783V25.8332Z" fill="white"/>
<path d="M14.5948 14.3271C14.0783 14.3271 13.6597 14.7436 13.6597 15.2575V21.8945C13.6597 22.4084 14.0783 22.8249 14.5948 22.8249C15.1113 22.8249 15.5299 22.4084 15.5299 21.8945V15.2575C15.5299 14.7436 15.1113 14.3271 14.5948 14.3271Z" fill="white"/>
<path d="M17.9301 17.646H11.2596C10.7431 17.646 10.3245 18.0625 10.3245 18.5764C10.3245 19.0903 10.7431 19.5068 11.2596 19.5068H17.9301C18.4469 19.5068 18.8652 19.0903 18.8652 18.5764C18.8652 18.0625 18.4466 17.646 17.9301 17.646Z" fill="white"/>
</g>
<defs>
<clipPath id="clip0_1_375">
<rect width="27.2432" height="27.1059" fill="white" transform="translate(0.973145 0.588379)"/>
</clipPath>
</defs>
</svg>
