<svg width="16" height="20" viewBox="0 0 16 20" fill="none" xmlns="http://www.w3.org/2000/svg">
<path d="M15.1546 12.4901L14.1795 10.8301C13.9748 10.4601 13.7895 9.76008 13.7895 9.35009V6.82011C13.7883 5.70415 13.4791 4.61134 12.8976 3.6681C12.3161 2.72487 11.4861 1.96976 10.5035 1.49015C10.2528 1.03349 9.887 0.654298 9.44447 0.392192C9.00194 0.130086 8.49888 -0.0053078 7.98788 0.000159242C6.92506 0.000159242 5.9695 0.590155 5.46247 1.52015C3.5611 2.49014 2.24477 4.50012 2.24477 6.82011V9.35009C2.24477 9.76008 2.05951 10.4601 1.85475 10.8201L0.869934 12.4901C0.47991 13.1601 0.392154 13.9 0.635919 14.58C0.869934 15.25 1.42572 15.77 2.14726 16.02C4.03888 16.68 6.02801 17 8.01713 17C10.0063 17 11.9954 16.68 13.887 16.03C14.5695 15.8 15.0961 15.27 15.3496 14.58C15.6031 13.89 15.5349 13.1301 15.1546 12.4901ZM10.7571 18.01C10.552 18.5922 10.1772 19.0954 9.68347 19.4515C9.18977 19.8075 8.60117 19.999 7.99763 20C7.22733 20 6.46679 19.68 5.9305 19.11C5.61848 18.81 5.38447 18.41 5.24796 18C5.37472 18.02 5.50148 18.03 5.63798 18.05C5.86225 18.08 6.09626 18.11 6.33028 18.13C6.88606 18.18 7.4516 18.21 8.01713 18.21C8.57292 18.21 9.1287 18.18 9.67474 18.13C9.8795 18.11 10.0843 18.1 10.2793 18.07L10.7571 18.01Z" fill="#2972FE"/>
</svg>
