<svg width="25" height="23" viewBox="0 0 25 23" fill="none" xmlns="http://www.w3.org/2000/svg">
<path fill-rule="evenodd" clip-rule="evenodd" d="M24.2 20.4049C24.2 21.0796 23.6591 21.6271 22.99 21.6271C22.3209 21.6271 21.78 21.0796 21.78 20.4049C21.78 18.3834 20.1513 16.7383 18.15 16.7383C17.3236 16.7383 16.5383 17.0243 15.9042 17.5315C16.5625 18.7488 16.94 20.1446 16.94 21.6271C16.94 22.3018 16.3991 22.8494 15.73 22.8494C15.0609 22.8494 14.52 22.3018 14.52 21.6271C14.52 18.2575 11.806 15.516 8.47 15.516C5.13403 15.516 2.42 18.2575 2.42 21.6271C2.42 22.3018 1.87913 22.8494 1.21 22.8494C0.54087 22.8494 0 22.3018 0 21.6271C0 16.9094 3.80061 13.0716 8.47 13.0716C10.8017 13.0716 12.9143 14.0286 14.4474 15.5723C15.4989 14.7509 16.7936 14.2938 18.15 14.2938C21.486 14.2938 24.2 17.0353 24.2 20.4049M18.15 8.1827C18.8179 8.1827 19.36 8.73148 19.36 9.40492C19.36 10.0784 18.8179 10.6271 18.15 10.6271C17.4821 10.6271 16.94 10.0784 16.94 9.40492C16.94 8.73148 17.4821 8.1827 18.15 8.1827M18.15 13.0716C20.1513 13.0716 21.78 11.4265 21.78 9.40492C21.78 7.38337 20.1513 5.73825 18.15 5.73825C16.1487 5.73825 14.52 7.38337 14.52 9.40492C14.52 11.4265 16.1487 13.0716 18.15 13.0716M8.47 3.29381C9.80463 3.29381 10.89 4.39014 10.89 5.73825C10.89 7.08637 9.80463 8.1827 8.47 8.1827C7.13537 8.1827 6.05 7.08637 6.05 5.73825C6.05 4.39014 7.13537 3.29381 8.47 3.29381M8.47 10.6271C11.1393 10.6271 13.31 8.43448 13.31 5.73825C13.31 3.04203 11.1393 0.849365 8.47 0.849365C5.80074 0.849365 3.63 3.04203 3.63 5.73825C3.63 8.43448 5.80074 10.6271 8.47 10.6271" fill="#7ACEFA"/>
</svg>
