<svg width="24" height="23" viewBox="0 0 24 23" fill="none" xmlns="http://www.w3.org/2000/svg">
<path fill-rule="evenodd" clip-rule="evenodd" d="M11.6057 17.1561C11.7902 17.1561 11.9748 17.2002 12.1431 17.2873L16.5175 19.5737L15.6853 14.749C15.6191 14.3706 15.7457 13.9853 16.0219 13.7172L19.5455 10.3096L14.6674 9.5993C14.2902 9.54476 13.9641 9.30915 13.7946 8.96793L11.6057 4.56452L9.41677 8.96793C9.24732 9.30915 8.92119 9.54476 8.54398 9.5993L3.66588 10.3096L7.18954 13.7172C7.46576 13.9853 7.59227 14.3706 7.52612 14.749L6.69395 19.5737L11.0683 17.2873C11.2366 17.2002 11.4212 17.1561 11.6057 17.1561M18.0611 22.849C17.8766 22.849 17.692 22.806 17.5237 22.7178L11.6057 19.6259L5.68769 22.7178C5.2954 22.9221 4.82186 22.8861 4.46787 22.6261C4.1104 22.3662 3.93283 21.9263 4.00711 21.4911L5.13523 14.9591L0.353464 10.334C0.0342927 10.0264 -0.0794483 9.56449 0.0563446 9.14318C0.190977 8.72187 0.555413 8.41547 0.992968 8.35163L7.60968 7.39064L10.5658 1.44128C10.9581 0.652059 12.2533 0.652059 12.6456 1.44128L15.6017 7.39064L22.2184 8.35163C22.656 8.41547 23.0204 8.72187 23.1551 9.14318C23.2909 9.56449 23.1771 10.0264 22.858 10.334L18.0762 14.9591L19.2043 21.4911C19.2786 21.9263 19.101 22.3662 18.7435 22.6261C18.5428 22.7747 18.3025 22.849 18.0611 22.849" fill="#F7C480"/>
</svg>
