<svg width="24" height="24" viewBox="0 0 24 24" fill="none" xmlns="http://www.w3.org/2000/svg">
<path d="M20.9101 11.12V6.72997C20.9101 5.90997 20.2901 4.97998 19.5201 4.66998L13.9501 2.38998C12.6967 1.87994 11.2935 1.87994 10.0401 2.38998L4.47009 4.66998C3.71009 4.97998 3.09009 5.90997 3.09009 6.72997V11.12C3.09009 16.01 6.64009 20.59 11.4901 21.93C11.8201 22.02 12.1801 22.02 12.5101 21.93C17.3601 20.59 20.9101 16.01 20.9101 11.12ZM12.7501 12.87V15.5C12.7501 15.91 12.4101 16.25 12.0001 16.25C11.5901 16.25 11.2501 15.91 11.2501 15.5V12.87C10.7448 12.7116 10.3029 12.3966 9.98832 11.9706C9.67375 11.5445 9.50277 11.0295 9.50009 10.5C9.50009 9.83693 9.76348 9.20105 10.2323 8.73221C10.7012 8.26337 11.337 7.99997 12.0001 7.99997C12.6631 7.99997 13.299 8.26337 13.7679 8.73221C14.2367 9.20105 14.5001 9.83693 14.5001 10.5C14.5001 11.62 13.7601 12.55 12.7501 12.87Z" fill="#4485FD"/>
</svg>
