<svg width="20" height="20" viewBox="0 0 20 20" fill="none" xmlns="http://www.w3.org/2000/svg">
<g clip-path="url(#clip0_1_922)">
<path d="M16.1109 12.2224C15.4804 12.2226 14.8593 12.3761 14.3014 12.6698C13.7435 12.9635 13.2654 13.3885 12.9084 13.9082L7.49169 11.4624C7.87156 10.5296 7.87454 9.48571 7.50003 8.55072L12.9117 6.09322C13.4394 6.85884 14.2241 7.40995 15.1233 7.64656C16.0226 7.88317 16.9769 7.78961 17.813 7.38286C18.6492 6.97611 19.3119 6.28311 19.6809 5.42958C20.0499 4.57605 20.1007 3.61854 19.8241 2.73075C19.5475 1.84297 18.9619 1.08373 18.1734 0.59077C17.385 0.0978114 16.446 -0.0962085 15.5267 0.0439098C14.6075 0.184028 13.7689 0.649002 13.1631 1.35448C12.5574 2.05995 12.2245 2.95919 12.225 3.88906C12.225 4.11024 12.2437 4.33102 12.2809 4.54906L6.53836 7.15572C5.98477 6.63942 5.29253 6.29589 4.54655 6.16727C3.80056 6.03865 3.03325 6.13053 2.33873 6.43165C1.6442 6.73276 1.05265 7.23002 0.636609 7.86243C0.220572 8.49485 -0.00186019 9.23494 -0.00340982 9.99193C-0.00495944 10.7489 0.214441 11.4899 0.627885 12.124C1.04133 12.7581 1.63084 13.2578 2.32413 13.5618C3.01742 13.8657 3.78434 13.9607 4.53085 13.8352C5.27736 13.7096 5.97099 13.3689 6.52669 12.8549L12.2767 15.4524C12.1415 16.2383 12.2512 17.0467 12.5909 17.7682C12.9305 18.4896 13.4838 19.0892 14.1756 19.4858C14.8674 19.8823 15.6644 20.0566 16.4586 19.985C17.2528 19.9135 18.0058 19.5995 18.6156 19.0857C19.2254 18.5719 19.6625 17.883 19.8678 17.1125C20.073 16.3419 20.0364 15.5269 19.7629 14.7778C19.4895 14.0288 18.9924 13.3819 18.339 12.9248C17.6856 12.4677 16.9083 12.2225 16.1109 12.2224Z" fill="#2972FE"/>
</g>
<defs>
<clipPath id="clip0_1_922">
<rect width="20" height="20" fill="white"/>
</clipPath>
</defs>
</svg>
