<svg width="29" height="28" viewBox="0 0 29 28" fill="none" xmlns="http://www.w3.org/2000/svg">
<g clip-path="url(#clip0_1_215)">
<path d="M20.8399 1.36084H17.9135V3.1619H19.9349V7.18428C19.9349 10.2134 17.4579 12.6775 14.4138 12.6775H13.9914C10.947 12.6775 8.47034 10.213 8.47034 7.18428V3.1619H10.4917V1.36084H7.56525C7.06535 1.36084 6.66016 1.76399 6.66016 2.26137V7.18428C6.66016 11.2063 9.94898 14.4786 13.9914 14.4786H14.4138C18.4562 14.4786 21.745 11.2063 21.745 7.18428V2.26137C21.745 1.76399 21.3398 1.36084 20.8399 1.36084Z" fill="white"/>
<path d="M17.8231 0.0703125C17.3232 0.0703125 16.918 0.47346 16.918 0.970843V3.49233C16.918 3.98971 17.3232 4.39286 17.8231 4.39286C18.323 4.39286 18.7282 3.98971 18.7282 3.49233V0.970843C18.7282 0.47346 18.323 0.0703125 17.8231 0.0703125Z" fill="white"/>
<path d="M10.6727 0.0703125C10.1728 0.0703125 9.76758 0.47346 9.76758 0.970843V3.49233C9.76758 3.98971 10.1728 4.39286 10.6727 4.39286C11.1726 4.39286 11.5778 3.98971 11.5778 3.49233V0.970843C11.5778 0.47346 11.1726 0.0703125 10.6727 0.0703125Z" fill="white"/>
<path d="M15.168 18.6518V13.5488H13.3578V18.6518H10.4313C8.06904 18.6518 6.14722 20.564 6.14722 22.914C6.14722 25.2644 8.0826 27.1765 10.4615 27.1765H10.8839C13.2462 27.1765 15.168 25.2644 15.168 22.914V20.4529H18.2453V18.6518H15.168ZM13.3578 22.9137C13.3578 24.2708 12.2478 25.3752 10.8839 25.3752H10.4615C9.0574 25.3752 7.9574 24.2942 7.9574 22.9137C7.9574 21.5566 9.06735 20.4526 10.4313 20.4526H13.3578V22.9137Z" fill="white"/>
<path d="M20.2065 16.7305C18.6431 16.7305 17.3708 17.996 17.3708 19.5521C17.3708 21.1077 18.6428 22.3735 20.2065 22.3735C21.7702 22.3735 23.0424 21.1077 23.0424 19.5521C23.0424 17.9963 21.7705 16.7305 20.2065 16.7305ZM20.2065 20.5722C19.6411 20.5722 19.181 20.1144 19.181 19.5519C19.181 18.989 19.6411 18.5313 20.2065 18.5313C20.7722 18.5313 21.2323 18.989 21.2323 19.5519C21.2323 20.1144 20.7722 20.5722 20.2065 20.5722Z" fill="white"/>
</g>
<defs>
<clipPath id="clip0_1_215">
<rect width="27.2432" height="27.1059" fill="white" transform="translate(0.973145 0.0703125)"/>
</clipPath>
</defs>
</svg>
