<svg width="20" height="21" viewBox="0 0 20 21" fill="none" xmlns="http://www.w3.org/2000/svg">
<mask id="mask0_1_1180" style="mask-type:alpha" maskUnits="userSpaceOnUse" x="0" y="1" width="20" height="19">
<path fill-rule="evenodd" clip-rule="evenodd" d="M10.0042 1.375H10.0125C10.4709 1.375 10.8375 1.74167 10.8375 2.2V3.00833C10.8375 3.46667 10.4709 3.83333 10.0042 3.825H9.99586C9.53753 3.825 9.17086 3.45833 9.17086 3V2.2C9.17086 1.74167 9.53753 1.375 10.0042 1.375ZM5.04586 4.36667L4.72086 4.04167C4.39586 3.71667 3.87086 3.725 3.55419 4.04167L3.54586 4.05C3.22086 4.375 3.22086 4.9 3.54586 5.21667L3.87086 5.54167C4.19586 5.86667 4.71252 5.86667 5.03752 5.54167L5.04586 5.53333C5.37086 5.21667 5.37086 4.68333 5.04586 4.36667ZM2.51252 9.66667H1.66252C1.20419 9.66667 0.837524 10.0333 0.837524 10.4917V10.5C0.837524 10.9583 1.20419 11.325 1.66252 11.325H2.50419C2.97086 11.3333 3.33752 10.9667 3.33752 10.5083V10.5C3.33752 10.0333 2.97086 9.66667 2.51252 9.66667ZM16.4625 4.05C16.1375 3.725 15.6125 3.725 15.2875 4.04167L14.9625 4.36667C14.6375 4.69167 14.6375 5.21667 14.9625 5.53333L14.9709 5.54167C15.2959 5.86667 15.8209 5.86667 16.1375 5.54167L16.4625 5.21667C16.7875 4.89167 16.7875 4.375 16.4625 4.05ZM15.2792 16.9583L14.9542 16.6333C14.6292 16.3083 14.6292 15.7917 14.9625 15.4583C15.2792 15.1417 15.8042 15.1333 16.1292 15.4583L16.4542 15.7833C16.7792 16.1083 16.7792 16.6333 16.4542 16.9583C16.1292 17.2833 15.6042 17.2833 15.2792 16.9583ZM16.6709 10.4917V10.5C16.6709 10.9583 17.0375 11.325 17.4959 11.325H18.3375C18.7959 11.325 19.1625 10.9583 19.1625 10.5V10.4917C19.1625 10.0333 18.7959 9.66667 18.3375 9.66667H17.4959C17.0375 9.66667 16.6709 10.0333 16.6709 10.4917ZM5.00419 10.5C5.00419 7.74167 7.24586 5.5 10.0042 5.5C12.7625 5.5 15.0042 7.74167 15.0042 10.5C15.0042 13.2583 12.7625 15.5 10.0042 15.5C7.24586 15.5 5.00419 13.2583 5.00419 10.5ZM9.99586 19.625H10.0042C10.4625 19.625 10.8292 19.2583 10.8292 18.8V18C10.8292 17.5417 10.4625 17.175 10.0042 17.175H9.99586C9.53753 17.175 9.17086 17.5417 9.17086 18V18.8C9.17086 19.2583 9.53753 19.625 9.99586 19.625ZM4.72086 16.95C4.39586 17.275 3.87086 17.275 3.54586 16.95C3.22086 16.625 3.22086 16.1083 3.53752 15.775L3.86252 15.45C4.01822 15.294 4.22959 15.2063 4.45002 15.2063C4.67046 15.2063 4.88183 15.294 5.03752 15.45L5.04586 15.4583C5.36252 15.775 5.37086 16.3 5.04586 16.625L4.72086 16.95Z" fill="black"/>
</mask>
<g mask="url(#mask0_1_1180)">
<rect y="0.5" width="20" height="20" fill="#2972FE"/>
</g>
</svg>
