<svg width="28" height="28" viewBox="0 0 28 28" fill="none" xmlns="http://www.w3.org/2000/svg">
<g clip-path="url(#clip0_1_237)">
<path d="M23.7317 9.56055L18.82 4.67355C18.4853 4.34082 17.9438 4.34055 17.6091 4.67297L4.9585 17.2315L6.16874 18.4385L18.2137 6.48117L21.9152 10.1643L9.89766 22.1483L11.1105 23.3525L23.7326 10.7653C24.0664 10.4322 24.0661 9.89297 23.7317 9.56055Z" fill="white"/>
<path d="M25.1885 4.41823L23.9891 3.22488C23.7098 2.94699 23.2764 2.895 22.9388 3.09898L18.7981 5.59934L19.6871 7.05665L23.2529 4.90322L23.5014 5.15067L21.3374 8.69857L22.802 9.58306L25.3151 5.46318C25.52 5.12743 25.4678 4.6958 25.1885 4.41823Z" fill="white"/>
<path d="M12.709 23.739L4.57029 15.6414C4.23587 15.3084 3.69329 15.3084 3.35893 15.6414C3.02424 15.9741 3.02424 16.5139 3.35893 16.8466L11.4976 24.9443C11.6647 25.1108 11.884 25.194 12.1033 25.194C12.3223 25.194 12.542 25.1107 12.709 24.9443C13.0437 24.6116 13.0437 24.0718 12.709 23.739Z" fill="white"/>
<path d="M12.4949 16.2951L4.49976 24.2793L5.71334 25.4823L13.7085 17.4981L12.4949 16.2951Z" fill="white"/>
<path d="M10.8116 14.6203L2.81641 22.6045L4.02999 23.8075L12.0252 15.8233L10.8116 14.6203Z" fill="white"/>
<path d="M7.71147 26.2391L2.05723 20.613C1.72254 20.2803 1.17996 20.2798 0.845542 20.613C0.511121 20.9458 0.511121 21.4853 0.845542 21.8183L6.49978 27.4443C6.66713 27.6108 6.88646 27.6941 7.10573 27.6941C7.32474 27.6941 7.54439 27.6108 7.71141 27.4443C8.04589 27.1117 8.04589 26.5721 7.71147 26.2391Z" fill="white"/>
<path d="M27.5871 0.838129C27.2524 0.505129 26.7104 0.505129 26.3757 0.838129L23.3772 3.82147C23.0425 4.1542 23.0425 4.69405 23.3772 5.02673C23.5446 5.19323 23.7636 5.27645 23.9829 5.27645C24.2022 5.27645 24.4215 5.19317 24.5886 5.02673L27.5871 2.04339C27.9218 1.71071 27.9218 1.17086 27.5871 0.838129Z" fill="white"/>
<path d="M10.5382 12.9982L9.32666 14.2036L14.1526 19.0052L15.3642 17.7998L10.5382 12.9982Z" fill="white"/>
</g>
<defs>
<clipPath id="clip0_1_237">
<rect width="27.2432" height="27.1059" fill="white" transform="translate(0.594727 0.588379)"/>
</clipPath>
</defs>
</svg>
