<svg width="28" height="28" viewBox="0 0 28 28" fill="none" xmlns="http://www.w3.org/2000/svg">
<g clip-path="url(#clip0_1_318)">
<path d="M7.12435 1.7193C6.79977 1.25003 6.15477 1.13149 5.68381 1.45406C4.96596 1.94499 4.40141 2.47027 3.95738 3.05914C3.61796 3.50951 3.70463 4.14782 4.15175 4.49241C4.34027 4.63774 4.5637 4.70815 4.78537 4.70815C5.08957 4.70815 5.39068 4.57553 5.59474 4.32131C5.94592 3.88433 6.39443 3.46932 6.85745 3.15258C7.14989 2.95262 7.30665 2.62968 7.30665 2.3016C7.30665 2.10063 7.24727 1.89761 7.12435 1.7193Z" fill="black"/>
<path d="M24.9388 5.33177C24.2555 3.13101 22.6717 1.45139 20.7128 0.842302C18.1832 0.0253654 15.9637 0.548584 14.404 1.2508C13.1759 0.485637 11.7091 0.0703125 10.2071 0.0703125C8.57148 0.0703125 7.00728 0.548849 5.6838 1.45414C5.05779 1.88254 4.47493 2.41953 3.99706 3.00903C3.94183 3.07224 3.90075 3.13339 3.8693 3.18665C2.75196 4.64327 2.16187 6.36826 2.16187 8.17805C2.16187 10.1091 2.8497 11.9763 4.10034 13.4419C4.13141 13.4873 4.16627 13.5357 4.20149 13.5848C4.2381 13.636 4.27471 13.6865 4.30402 13.7305C4.31472 13.7463 4.32579 13.7618 4.33717 13.7769C4.80398 14.3963 5.26738 16.7609 5.46521 17.7706C5.51736 18.0372 5.56328 18.2715 5.60058 18.4456C5.69864 18.9335 5.79841 19.4608 5.86333 20.0105C6.08053 21.8842 6.44374 23.4154 6.93752 24.5484C7.6243 26.1885 8.59074 27.071 9.8103 27.1721C9.83898 27.1744 9.86798 27.1758 9.89661 27.1758H10.0347C11.5471 27.1758 12.3876 25.4447 13.0104 23.751C13.0156 23.7365 13.0204 23.7225 13.025 23.7081L13.8768 21.0332L14.7082 23.7019C14.7134 23.7183 14.7186 23.7348 14.7248 23.7513C15.3111 25.3458 16.1795 27.1762 17.7002 27.1762H17.8383C17.868 27.1762 17.8981 27.1749 17.9278 27.1725C18.7661 27.1 19.9443 26.586 20.7961 24.5516C21.2591 23.4519 21.6002 22.0152 21.8706 20.0137C21.9362 19.4605 22.036 18.9339 22.1316 18.4581C22.171 18.2726 22.2169 18.0389 22.2691 17.773C22.4666 16.7626 22.9299 14.3973 23.4013 13.7721C25.2582 11.2707 25.8317 8.11172 24.9388 5.33177ZM21.7394 12.5407C21.0454 13.4625 20.6317 15.3547 20.2356 17.3782C20.1859 17.6315 20.1424 17.8537 20.1027 18.0413C19.996 18.5703 19.8873 19.1465 19.8151 19.7556C19.572 21.5558 19.2767 22.8262 18.8845 23.7565C18.5506 24.5543 18.1401 25.0576 17.78 25.1149H17.7779C17.666 25.0301 17.2576 24.6333 16.6792 23.067L15.1675 18.2138C15.1616 18.1945 15.155 18.1756 15.1482 18.1571C14.9479 17.6253 14.4517 17.282 13.8844 17.282C13.3171 17.282 12.8213 17.6253 12.621 18.1571C12.6148 18.1732 12.6089 18.19 12.6034 18.2072L11.0565 23.0639C10.4636 24.6704 10.0783 25.0386 9.97121 25.1149H9.9512C9.45811 25.0424 9.05068 24.2368 8.84386 23.7428C8.43122 22.796 8.11217 21.4239 7.92089 19.7724C7.84698 19.1482 7.73822 18.5717 7.62914 18.0303C7.59184 17.8537 7.54799 17.6307 7.4983 17.3768C7.10572 15.3715 6.69584 13.4947 6.01253 12.5651C5.97523 12.5101 5.93106 12.449 5.88717 12.3875C5.85093 12.337 5.81464 12.2868 5.78564 12.2435C5.76218 12.2085 5.73664 12.1752 5.70897 12.1432C4.75769 11.0438 4.23358 9.63563 4.23358 8.17795C4.23358 6.82366 4.67692 5.53089 5.51667 4.43638C5.56434 4.38037 5.60058 4.32679 5.62926 4.27904C5.97523 3.85784 6.40963 3.45898 6.85781 3.15255C7.83431 2.4847 8.99236 2.13153 10.2071 2.13153C11.486 2.13153 12.7232 2.53314 13.6903 3.26182C14.0118 3.50435 14.4455 3.53871 14.8004 3.35114C16.01 2.71452 17.9056 2.10267 20.084 2.80558C21.4224 3.22196 22.4703 4.3639 22.9627 5.94902C23.6568 8.11003 23.1979 10.5763 21.7394 12.5407Z" fill="white"/>
</g>
<defs>
<clipPath id="clip0_1_318">
<rect width="27.2432" height="27.1059" fill="white" transform="translate(0.135254 0.0703125)"/>
</clipPath>
</defs>
</svg>
