<svg width="21" height="18" viewBox="0 0 21 18" fill="none" xmlns="http://www.w3.org/2000/svg">
<path d="M9.69707 2.85114L10.499 3.93136L11.3022 2.85207C12.1392 1.7274 13.4775 1 14.9661 1C17.4922 1 19.5588 3.07067 19.5588 5.65281C19.5588 6.74801 19.3852 7.75714 19.0838 8.69365L19.0838 8.69365L19.0818 8.70014C18.3581 11.0024 16.8691 12.8745 15.239 14.2829C13.6043 15.6953 11.8845 16.5918 10.8 16.9628L10.8 16.9627L10.7892 16.9666C10.7591 16.9772 10.6544 17 10.5 17C10.3456 17 10.2409 16.9772 10.2107 16.9666L10.2108 16.9665L10.2 16.9628C9.11545 16.5918 7.39567 15.6953 5.76098 14.2829C4.13085 12.8745 2.64187 11.0024 1.9182 8.70014L1.91823 8.70013L1.91614 8.69365C1.61475 7.75714 1.44116 6.74801 1.44116 5.65281C1.44116 3.07089 3.50739 1.00036 6.03322 1C6.74423 1.001 7.44544 1.16854 8.08128 1.48959C8.71733 1.81075 9.27067 2.27679 9.69707 2.85114Z" stroke="#2972FE" stroke-width="2"/>
</svg>
